{
  "accessors": [
    {
      "bufferView": 0,
      "componentType": 5125,
      "count": 4596,
      "type": "SCALAR"
    },
    {
      "bufferView": 1,
      "componentType": 5126,
      "count": 1286,
      "max": [
        -0.006738282590079359,
        0.23178692877405055,
        0.029799998084511135
      ],
      "min": [
        -0.09203597814108222,
        0.03894017287592183,
        -0.02980000040986617
      ],
      "type": "VEC3"
    },
    {
      "bufferView": 2,
      "componentType": 5126,
      "count": 1286,
      "max": [
        0.9999999999999803,
        0.9999999999999687,
        1.0
      ],
      "min": [
        -0.9999999999999823,
        -0.9999999999999909,
        -1.0
      ],
      "type": "VEC3"
    },
    {
      "bufferView": 3,
      "componentType": 5126,
      "count": 1286,
      "max": [
        1.0,
        0.5882173684332218
      ],
      "min": [
        0.0,
        0.0
      ],
      "type": "VEC2"
    },
    {
      "bufferView": 4,
      "componentType": 5125,
      "count": 4596,
      "type": "SCALAR"
    },
    {
      "bufferView": 5,
      "componentType": 5126,
      "count": 1286,
      "max": [
        0.16014831560668585,
        0.23178693282548213,
        0.02980000040986617
      ],
      "min": [
        0.07485061672771132,
        0.03894016940325168,
        -0.02980000040986617
      ],
      "type": "VEC3"
    },
    {
      "bufferView": 6,
      "componentType": 5126,
      "count": 1286,
      "max": [
        0.9999999999999162,
        0.9999999999998934,
        1.0
      ],
      "min": [
        -0.9999999999999202,
        -0.9999999999999398,
        -1.0
      ],
      "type": "VEC3"
    },
    {
      "bufferView": 7,
      "componentType": 5126,
      "count": 1286,
      "max": [
        1.0,
        0.5882173684332218
      ],
      "min": [
        0.0,
        0.0
      ],
      "type": "VEC2"
    },
    {
      "bufferView": 8,
      "componentType": 5125,
      "count": 9216,
      "type": "SCALAR"
    },
    {
      "bufferView": 9,
      "componentType": 5126,
      "count": 2574,
      "max": [
        0.469136787649555,
        0.4691367579391528,
        0.029799998084511156
      ],
      "min": [
        -0.46913678764955496,
        -0.46913675793915277,
        -0.02980000040986617
      ],
      "type": "VEC3"
    },
    {
      "bufferView": 10,
      "componentType": 5126,
      "count": 2574,
      "max": [
        0.9999999999999986,
        0.9999999999999986,
        1.0
      ],
      "min": [
        -0.9999999999999986,
        -0.9999999999999987,
        -1.0
      ],
      "type": "VEC3"
    },
    {
      "bufferView": 11,
      "componentType": 5126,
      "count": 2574,
      "max": [
        0.9788516731938007,
        1.0
      ],
      "min": [
        0.0,
        0.0
      ],
      "type": "VEC2"
    },
    {
      "bufferView": 12,
      "componentType": 5125,
      "count": 7008,
      "type": "SCALAR"
    },
    {
      "bufferView": 13,
      "componentType": 5126,
      "count": 1958,
      "max": [
        0.17672952016012744,
        -0.0852998900107147,
        0.029799998084511142
      ],
      "min": [
        -0.09563142179451178,
        -0.2689797184760526,
        -0.02980000040986617
      ],
      "type": "VEC3"
    },
    {
      "bufferView": 14,
      "componentType": 5126,
      "count": 1958,
      "max": [
        0.9999658050564921,
        0.9999951700677846,
        1.0
      ],
      "min": [
        -0.9999468019424154,
        -0.9999915358710202,
        -1.0
      ],
      "type": "VEC3"
    },
    {
      "bufferView": 15,
      "componentType": 5126,
      "count": 1958,
      "max": [
        1.0,
        0.9717337427570939
      ],
      "min": [
        0.0,
        0.0
      ],
      "type": "VEC2"
    }
  ],
  "asset": {
    "generator": "Adobe Illustrator",
    "version": "2.0"
  },
  "bufferViews": [
    {
      "buffer": 0,
      "byteLength": 18384,
      "target": 34963
    },
    {
      "buffer": 0,
      "byteLength": 15432,
      "byteOffset": 18384,
      "target": 34962
    },
    {
      "buffer": 0,
      "byteLength": 15432,
      "byteOffset": 33816,
      "target": 34962
    },
    {
      "buffer": 0,
      "byteLength": 10288,
      "byteOffset": 49248,
      "target": 34962
    },
    {
      "buffer": 0,
      "byteLength": 18384,
      "byteOffset": 59536,
      "target": 34963
    },
    {
      "buffer": 0,
      "byteLength": 15432,
      "byteOffset": 77920,
      "target": 34962
    },
    {
      "buffer": 0,
      "byteLength": 15432,
      "byteOffset": 93352,
      "target": 34962
    },
    {
      "buffer": 0,
      "byteLength": 10288,
      "byteOffset": 108784,
      "target": 34962
    },
    {
      "buffer": 0,
      "byteLength": 36864,
      "byteOffset": 119072,
      "target": 34963
    },
    {
      "buffer": 0,
      "byteLength": 30888,
      "byteOffset": 155936,
      "target": 34962
    },
    {
      "buffer": 0,
      "byteLength": 30888,
      "byteOffset": 186824,
      "target": 34962
    },
    {
      "buffer": 0,
      "byteLength": 20592,
      "byteOffset": 217712,
      "target": 34962
    },
    {
      "buffer": 0,
      "byteLength": 28032,
      "byteOffset": 238304,
      "target": 34963
    },
    {
      "buffer": 0,
      "byteLength": 23496,
      "byteOffset": 266336,
      "target": 34962
    },
    {
      "buffer": 0,
      "byteLength": 23496,
      "byteOffset": 289832,
      "target": 34962
    },
    {
      "buffer": 0,
      "byteLength": 15664,
      "byteOffset": 313328,
      "target": 34962
    }
  ],
  "buffers": [
    {
      "byteLength": 328992,
      "uri": "data:application/octet-stream;base64,"
    }
  ],
  "materials": [
    {
      "doubleSided": true,
      "pbrMetallicRoughness": {
        "baseColorFactor": [
          0.9921874403953552,
          0.8125,
          0.0,
          1.0
        ],
        "metallicFactor": 0.0,
        "roughnessFactor": 0.4000000059604645
      }
    },
    {
      "doubleSided": true,
      "pbrMetallicRoughness": {
        "baseColorFactor": [
          0.9921874403953552,
          0.8125,
          0.0,
          1.0
        ],
        "metallicFactor": 0.0,
        "roughnessFactor": 0.4000000059604645
      }
    },
    {
      "doubleSided": true,
      "pbrMetallicRoughness": {
        "baseColorFactor": [
          0.9921874403953552,
          0.8125,
          0.0,
          1.0
        ],
        "metallicFactor": 0.0,
        "roughnessFactor": 0.4000000059604645
      }
    },
    {
      "doubleSided": true,
      "pbrMetallicRoughness": {
        "baseColorFactor": [
          0.9921874403953552,
          0.8125,
          0.0,
          1.0
        ],
        "metallicFactor": 0.0,
        "roughnessFactor": 0.4000000059604645
      }
    }
  ],
  "meshes": [
    {
      "primitives": [
        {
          "attributes": {
            "NORMAL": 2,
            "POSITION": 1,
            "TEXCOORD_0": 3
          },
          "indices": 0,
          "material": 0,
          "mode": 4
        }
      ]
    },
    {
      "primitives": [
        {
          "attributes": {
            "NORMAL": 6,
            "POSITION": 5,
            "TEXCOORD_0": 7
          },
          "indices": 4,
          "material": 1,
          "mode": 4
        }
      ]
    },
    {
      "primitives": [
        {
          "attributes": {
            "NORMAL": 10,
            "POSITION": 9,
            "TEXCOORD_0": 11
          },
          "indices": 8,
          "material": 2,
          "mode": 4
        }
      ]
    },
    {
      "primitives": [
        {
          "attributes": {
            "NORMAL": 14,
            "POSITION": 13,
            "TEXCOORD_0": 15
          },
          "indices": 12,
          "material": 3,
          "mode": 4
        }
      ]
    }
  ],
  "nodes": [
    {
      "mesh": 0
    },
    {
      "mesh": 1
    },
    {
      "mesh": 2
    },
    {
      "mesh": 3
    }
  ],
  "scenes": [
    {
      "nodes": [
        0,
        1,
        2,
        3
      ]
    }
  ]
}
